<svg xmlns="http://www.w3.org/2000/svg" viewBox="0 0 500 500">
  <defs>
    <clipPath id="a">
      <rect width="1000" height="1000" rx="500" ry="500"></rect>
    </clipPath>
  </defs>
  <g clip-path="url(#a)" transform="matrix(0.497532, 0, 0, 0.497532, 1.233697, 1.233697)" style="">
    <path fill="#6313bc" d="M0 0h1000v1000H0z"></path>
    <g transform="scale(2)">
      <svg xmlns="http://www.w3.org/2000/svg" width="500" height="500">
        <svg xmlns="http://www.w3.org/2000/svg" viewBox="0 0 500 500">
          <circle cx="250" cy="250" r="248.766" fill="#6313bc"></circle>
          <circle cx="250" cy="250" r="189.123" fill="#6313bc" stroke="#fff" style="stroke-width: 12.0595px;"></circle>
          <path d="M 351.026 253.336 C 331.046 299.225 313.432 320.604 295.449 320.604 C 272.648 320.604 258.454 287.93 243.424 253.336 C 231.567 226.033 218.126 195.09 204.593 195.09 C 189.696 195.09 171.617 231.572 162.162 253.336 C 159.688 258.754 152.713 259.252 149.606 254.228 C 148.21 251.948 147.989 249.136 149.01 246.667 C 168.91 200.778 186.574 179.396 204.593 179.396 C 227.388 179.396 241.583 212.074 256.612 246.667 C 268.436 273.969 281.878 304.913 295.408 304.913 C 310.306 304.913 328.382 268.43 337.839 246.667 C 340.311 241.248 347.288 240.752 350.395 245.776 C 351.787 248.021 352.007 250.872 350.99 253.336 L 351.026 253.336 Z" style="stroke-miterlimit: 3.22; stroke: rgb(186, 218, 85); stroke-width: 0px; fill: rgb(255, 255, 255); paint-order: fill; stroke-opacity: 0;"></path>
        </svg>
      </svg>
    </g>
  </g>
</svg>
